<svg id="Layer_1" data-name="Layer 1" xmlns="http://www.w3.org/2000/svg" viewBox="0 0 454 131"><defs><style>.cls-1{fill:none;stroke:#f28123;stroke-miterlimit:10;stroke-width:3px;}.cls-2{font-size:60px;font-family:UTMAvoBold, UTM Avo;}.cls-2,.cls-3{fill:#f28123;}.cls-3{font-size:32.46px;font-family:UTM-Avo, UTM Avo;}</style></defs><title>Artboard 2</title><path class="cls-1" d="M90.14,72.9A24.79,24.79,0,1,1,46.92,56.36H9.46V101a5.35,5.35,0,0,0,5.34,5.34H115.91a5.35,5.35,0,0,0,5.34-5.34V56.36H83.79A24.7,24.7,0,0,1,90.14,72.9Z"/><path class="cls-1" d="M65.35,87.2A14.3,14.3,0,1,0,51.06,72.9,14.31,14.31,0,0,0,65.35,87.2Z"/><path class="cls-1" d="M37.22,39.48V39.2a2.53,2.53,0,0,1,0-.28H29.65v.56Z"/><path class="cls-1" d="M115.91,38.92H93.52a2.53,2.53,0,0,1,0,.28v.28h22.38a5.35,5.35,0,0,1,5.34,5.34v11h.28v.56h-.28V101a5.35,5.35,0,0,1-5.34,5.34H14.8A5.35,5.35,0,0,1,9.46,101V56.36H9.18V55.8h.28v-11a5.34,5.34,0,0,1,5.34-5.34h-.17v-.55A5.89,5.89,0,0,0,8.9,44.82V101a5.9,5.9,0,0,0,5.9,5.9H115.91a5.91,5.91,0,0,0,5.9-5.9V44.82A5.9,5.9,0,0,0,115.91,38.92Z"/><path class="cls-1" d="M60.12,48.68a24.43,24.43,0,0,1,5.23-.56h-11V39.48h-.56v9.2Z"/><polygon class="cls-1" points="54.34 30.82 76.37 30.82 76.37 38.92 76.93 38.92 76.93 30.26 53.78 30.26 53.78 38.92 54.34 38.92 54.34 30.82"/><path class="cls-1" d="M76.37,48.12h-11a24.46,24.46,0,0,1,5.24.56h6.34v-9.2h-.56Z"/><path class="cls-1" d="M18.41,38.92V32.2a3.4,3.4,0,0,1,3.4-3.4h3.32a3.4,3.4,0,0,1,3.4,3.4v6.72h.41V32.2a3.82,3.82,0,0,0-3.81-3.81H21.81A3.82,3.82,0,0,0,18,32.2v6.73h.41Z"/><path class="cls-1" d="M14.8,39.48H29.65v-.56h-15v.55Z"/><path class="cls-1" d="M52.87,24.67h25A15.11,15.11,0,0,1,93,39.48h.55A15.66,15.66,0,0,0,77.88,24.11h-25A15.66,15.66,0,0,0,37.23,39.48h.55A15.11,15.11,0,0,1,52.87,24.67Z"/><rect class="cls-1" x="53.78" y="38.92" width="0.56" height="0.56"/><rect class="cls-1" x="76.37" y="38.92" width="0.56" height="0.56"/><path class="cls-1" d="M65.35,48.68H60.12A24.78,24.78,0,0,0,47.44,55.8h.78A24.13,24.13,0,0,1,65.35,48.68Z"/><path class="cls-1" d="M82.49,55.8h.77a24.71,24.71,0,0,0-12.67-7.12H65.35A24.14,24.14,0,0,1,82.49,55.8Z"/><path class="cls-1" d="M89.58,72.9a24.23,24.23,0,1,1-41.9-16.54h-.76a24.79,24.79,0,1,0,36.87,0H83A24.12,24.12,0,0,1,89.58,72.9Z"/><path class="cls-1" d="M47.44,55.8h-38v.56H46.92Z"/><path class="cls-1" d="M83.79,56.36h37.46V55.8h-38C83.44,56,83.62,56.17,83.79,56.36Z"/><rect class="cls-1" x="121.25" y="55.8" width="0.28" height="0.56"/><rect class="cls-1" x="9.18" y="55.8" width="0.28" height="0.56"/><path class="cls-1" d="M48.22,55.8h-.78l-.52.56h.76Z"/><path class="cls-1" d="M83,56.36h.77c-.17-.19-.35-.38-.53-.56h-.77C82.67,56,82.85,56.17,83,56.36Z"/><path class="cls-1" d="M69.76,80.54H61L56.54,72.9,61,65.27h8.81l4.41,7.63ZM61.27,80h8.17l4.08-7.07-4.08-7.07H61.27L57.19,72.9Z"/><path class="cls-1" d="M65.35,87.76A14.86,14.86,0,1,0,50.5,72.9,14.87,14.87,0,0,0,65.35,87.76Zm0-29.15A14.3,14.3,0,1,1,51.06,72.9,14.31,14.31,0,0,1,65.35,58.61Z"/><rect class="cls-1" x="69.29" y="57.14" width="0.56" height="16.71" transform="translate(-23.43 43.56) rotate(-30)"/><rect class="cls-1" x="60.75" y="71.9" width="0.56" height="16.71" transform="translate(-31.95 41.27) rotate(-30)"/><rect class="cls-1" x="52.64" y="65.27" width="16.96" height="0.56"/><rect class="cls-1" x="61.06" y="79.97" width="16.96" height="0.56"/><rect class="cls-1" x="48.52" y="72.47" width="16.7" height="0.56" transform="translate(-34.57 85.59) rotate(-59.98)"/><rect class="cls-1" x="65.58" y="72.47" width="16.71" height="0.56" transform="translate(-26.05 100.36) rotate(-59.98)"/><text class="cls-2" transform="translate(137.7 66.13) scale(0.9 1)">HUNG LOC</text><text class="cls-3" transform="translate(138.7 109.86) scale(0.9 1)">Online Camera Store</text></svg>