<svg id="Layer_1" data-name="Layer 1" xmlns="http://www.w3.org/2000/svg" viewBox="0 0 32 32"><defs><style>.cls-1{fill:none;stroke:#f28123;stroke-miterlimit:10;stroke-width:0.5px;}</style></defs><title>Artboard 1</title><path class="cls-1" d="M22.49,17.24a6.62,6.62,0,0,1-13.23,0A6.56,6.56,0,0,1,11,12.82H1V24.73a1.43,1.43,0,0,0,1.42,1.43h27a1.43,1.43,0,0,0,1.42-1.43V12.82h-10A6.6,6.6,0,0,1,22.49,17.24Z"/><path class="cls-1" d="M15.88,21.05a3.82,3.82,0,1,0-3.82-3.81A3.82,3.82,0,0,0,15.88,21.05Z"/><path class="cls-1" d="M8.37,8.32V8.17h-2v.15Z"/><path class="cls-1" d="M29.37,8.17h-6a.17.17,0,0,1,0,.07v.08h6a1.43,1.43,0,0,1,1.42,1.42v2.93h.08v.15h-.08V24.73a1.43,1.43,0,0,1-1.42,1.43h-27A1.43,1.43,0,0,1,1,24.73V12.82H.89v-.15H1V9.74A1.43,1.43,0,0,1,2.38,8.32h0V8.17A1.57,1.57,0,0,0,.81,9.74v15a1.58,1.58,0,0,0,1.57,1.58h27a1.57,1.57,0,0,0,1.57-1.58v-15A1.57,1.57,0,0,0,29.37,8.17Z"/><path class="cls-1" d="M14.48,10.77a7.15,7.15,0,0,1,1.4-.15H12.94V8.32h-.15v2.45Z"/><polygon class="cls-1" points="12.94 6.01 18.82 6.01 18.82 8.17 18.97 8.17 18.97 5.86 12.79 5.86 12.79 8.17 12.94 8.17 12.94 6.01"/><path class="cls-1" d="M18.82,10.62H15.88a7,7,0,0,1,1.39.15H19V8.32h-.15Z"/><path class="cls-1" d="M3.35,8.17V6.38a.91.91,0,0,1,.91-.91h.88a.91.91,0,0,1,.91.91V8.17h.11V6.38a1,1,0,0,0-1-1H4.26a1,1,0,0,0-1,1V8.17h.11Z"/><path class="cls-1" d="M2.38,8.32h4V8.17h-4v.15Z"/><path class="cls-1" d="M12.55,4.37h6.67a4,4,0,0,1,4,4h.14a4.17,4.17,0,0,0-4.17-4.1H12.55a4.18,4.18,0,0,0-4.18,4.1h.15A4,4,0,0,1,12.55,4.37Z"/><rect class="cls-1" x="12.79" y="8.17" width="0.15" height="0.15"/><rect class="cls-1" x="18.82" y="8.17" width="0.15" height="0.15"/><path class="cls-1" d="M15.88,10.77h-1.4a6.63,6.63,0,0,0-3.38,1.9h.2A6.48,6.48,0,0,1,15.88,10.77Z"/><path class="cls-1" d="M20.45,12.67h.21a6.66,6.66,0,0,0-3.39-1.9H15.88A6.46,6.46,0,0,1,20.45,12.67Z"/><path class="cls-1" d="M22.34,17.24a6.47,6.47,0,1,1-11.18-4.42H11a6.56,6.56,0,0,0-1.7,4.42A6.62,6.62,0,1,0,20.8,12.82h-.21A6.42,6.42,0,0,1,22.34,17.24Z"/><path class="cls-1" d="M11.1,12.67H1v.15H11Z"/><path class="cls-1" d="M20.8,12.82h10v-.15H20.66Z"/><rect class="cls-1" x="30.79" y="12.67" width="0.07" height="0.15"/><rect class="cls-1" x="0.89" y="12.67" width="0.07" height="0.15"/><path class="cls-1" d="M11.3,12.67h-.2l-.14.15h.2Z"/><path class="cls-1" d="M20.59,12.82h.21l-.14-.15h-.21Z"/><path class="cls-1" d="M17.05,19.27H14.7l-1.17-2,1.17-2h2.35l1.18,2Zm-2.26-.15H17l1.09-1.88L17,15.35H14.79L13.7,17.24Z"/><path class="cls-1" d="M15.88,21.2a4,4,0,1,0-4-4A4,4,0,0,0,15.88,21.2Zm0-7.78a3.82,3.82,0,1,1-3.82,3.82A3.82,3.82,0,0,1,15.88,13.42Z"/><rect class="cls-1" x="16.93" y="13.03" width="0.15" height="4.46" transform="translate(-5.35 10.55) rotate(-30)"/><rect class="cls-1" x="14.65" y="16.97" width="0.15" height="4.46" transform="translate(-7.63 9.93) rotate(-30)"/><rect class="cls-1" x="12.48" y="15.2" width="4.53" height="0.15"/><rect class="cls-1" x="14.73" y="19.12" width="4.53" height="0.15"/><rect class="cls-1" x="11.38" y="17.12" width="4.46" height="0.15" transform="translate(-8.09 20.38) rotate(-59.98)"/><rect class="cls-1" x="15.94" y="17.12" width="4.46" height="0.15" transform="translate(-5.81 24.32) rotate(-59.98)"/></svg>